<svg width="25" height="25" viewBox="0 0 25 25" fill="none" xmlns="http://www.w3.org/2000/svg">
<path d="M23.252 10.5477C23.6661 10.5492 24.019 10.7178 24.3108 11.0537C24.6026 11.3895 24.7476 11.7941 24.7459 12.2673C24.7443 12.7405 24.5963 13.144 24.3022 13.4778C24.008 13.8116 23.6539 13.9777 23.2399 13.9762L23.0641 13.9756L21.685 22.8369C21.6211 23.2474 21.448 23.586 21.1658 23.8529C20.8836 24.1198 20.5628 24.2525 20.2035 24.2513L5.20356 24.1982C4.84419 24.1969 4.52435 24.0618 4.24405 23.793C3.96375 23.5241 3.79308 23.1842 3.73203 22.7733L2.41578 13.9025L2.24 13.9019C1.82594 13.9004 1.47302 13.7318 1.18124 13.3959C0.889458 13.06 0.744405 12.6555 0.746081 12.1823C0.747757 11.7091 0.895671 11.3056 1.18982 10.9718C1.48398 10.638 1.83808 10.4719 2.25214 10.4733L23.252 10.5477ZM6.39777 21.2024C6.60096 21.1852 6.77123 21.0854 6.9086 20.9028C7.04596 20.7203 7.10725 20.5129 7.09244 20.2807L6.73718 14.708C6.72237 14.4758 6.63517 14.2813 6.47557 14.1245C6.31597 13.9677 6.13457 13.8978 5.93138 13.915C5.7282 13.9321 5.55792 14.0319 5.42055 14.2145C5.28319 14.397 5.22191 14.6044 5.23671 14.8366L5.59198 20.4093C5.60681 20.6326 5.68623 20.8204 5.83022 20.9727C5.97421 21.125 6.14386 21.2015 6.33918 21.2022L6.39777 21.2024ZM11.2172 20.3623L11.2369 14.7909C11.2377 14.5588 11.1642 14.3576 11.0164 14.1874C10.8686 14.0173 10.6931 13.9318 10.4899 13.9311C10.2868 13.9304 10.1107 14.0146 9.96171 14.1837C9.81267 14.3528 9.73774 14.5534 9.73692 14.7856L9.71719 20.357C9.71637 20.5891 9.78988 20.7903 9.93771 20.9604C10.0855 21.1306 10.261 21.216 10.4642 21.2168C10.6673 21.2175 10.8434 21.1333 10.9924 20.9642C11.1414 20.7951 11.2164 20.5944 11.2172 20.3623ZM15.7172 20.3782L15.7369 14.8068C15.7377 14.5747 15.6642 14.3735 15.5164 14.2034C15.3685 14.0332 15.193 13.9478 14.9899 13.947C14.7868 13.9463 14.6107 14.0305 14.4617 14.1996C14.3126 14.3687 14.2377 14.5694 14.2369 14.8015L14.2172 20.3729C14.2163 20.6051 14.2898 20.8062 14.4377 20.9764C14.5855 21.1465 14.761 21.232 14.9641 21.2327C15.1672 21.2334 15.3433 21.1492 15.4924 20.9801C15.6414 20.811 15.7163 20.6104 15.7172 20.3782ZM19.8419 20.4598L20.2366 14.8897C20.2531 14.6576 20.1933 14.4498 20.0572 14.2663C19.9211 14.0828 19.7515 13.9818 19.5485 13.9632C19.3454 13.9446 19.1635 14.0132 19.0028 14.1688C18.8421 14.3245 18.7535 14.5184 18.7371 14.7505L18.3424 20.3206C18.3259 20.5526 18.3857 20.7604 18.5218 20.944C18.6579 21.1275 18.8274 21.2285 19.0305 21.2471L19.0891 21.2473C19.2844 21.248 19.4546 21.1727 19.5997 21.0214C19.7447 20.8702 19.8255 20.683 19.8419 20.4598ZM6.35282 4.11282L5.24344 9.62678L3.69657 9.6213L4.90108 3.71928C5.05229 2.9341 5.40222 2.29471 5.95084 1.80111C6.49947 1.30751 7.12534 1.06196 7.82846 1.06445L9.78548 1.07138C9.78631 0.839239 9.86123 0.63861 10.0103 0.469494C10.1593 0.300378 10.3354 0.21618 10.5385 0.216899L15.0385 0.232834C15.2416 0.233553 15.4171 0.318997 15.5649 0.489164C15.7128 0.659332 15.7863 0.860486 15.7854 1.09263L17.7425 1.09956C18.4456 1.10205 19.0697 1.35203 19.6148 1.8495C20.1599 2.34697 20.5053 2.98882 20.651 3.77505L21.8136 9.68546L20.2668 9.67998L19.1965 4.1583C19.1119 3.76514 18.9353 3.44308 18.6667 3.19213C18.3981 2.94118 18.088 2.81508 17.7364 2.81383L15.7794 2.8069C15.7786 3.03904 15.7036 3.23967 15.5546 3.40879C15.4055 3.57791 15.2295 3.6621 15.0263 3.66138L10.5264 3.64545C10.3232 3.64473 10.1478 3.55929 9.99993 3.38912C9.8521 3.21895 9.77859 3.0178 9.77941 2.78566L7.82239 2.77873C7.47083 2.77748 7.15985 2.90138 6.88943 3.15042C6.61902 3.39947 6.44014 3.72027 6.35282 4.11282Z" fill="white"/>
</svg>
