<?xml version="1.0" encoding="UTF-8" standalone="no"?>
<!-- Created with Inkscape (http://www.inkscape.org/) -->

<svg
   width="1000"
   height="1000"
   viewBox="0 0 1000 1000"
   version="1.1"
   id="svg5"
   xmlns="http://www.w3.org/2000/svg"
   xmlns:svg="http://www.w3.org/2000/svg"
   xmlns:rdf="http://www.w3.org/1999/02/22-rdf-syntax-ns#"
   xmlns:cc="http://creativecommons.org/ns#"
   xmlns:dc="http://purl.org/dc/elements/1.1/">
  <defs
     id="defs2" />
  <g
     id="layer1">
    <g
       id="g4657"
       transform="translate(1.5e-6,37.044923)">
      <path
         id="path4606"
         style="fill:#1a1a1a;fill-opacity:1;stroke:none;stroke-width:0.834085px;stroke-linecap:butt;stroke-linejoin:miter;stroke-opacity:1"
         d="m 762.49023,633.39453 c -74.26985,0.41295 -133.23687,20.63422 -111.04296,41.84961 21.74183,20.78322 122.03043,-39.16633 281.125,1.98438 -45.29338,-32.49468 -112.3166,-44.15518 -170.08204,-43.83399 z M 753.0918,702.125 c -38.60603,-0.11789 -62.21113,9.00229 -50.57813,25.84375 C 719.6077,752.71633 829.941,714.26707 977.43945,786.71484 923.44875,728.17743 817.43519,702.32148 753.0918,702.125 Z m -69.05078,57.91016 c -14.87326,0.19543 -22.50888,5.37149 -17.66016,16.09765 10.13325,22.41637 95.52935,6.96488 197.19922,86.38086 -39.08316,-63.18312 -133.3586,-101.18065 -176.46875,-102.45117 -1.05433,-0.0311 -2.07876,-0.0404 -3.07031,-0.0273 z" />
      <path
         id="path4604"
         style="fill:#1a1a1a;fill-opacity:1;stroke:none;stroke-width:0.834085px;stroke-linecap:butt;stroke-linejoin:miter;stroke-opacity:1"
         d="M 237.50977,633.39453 C 179.74434,633.07334 112.72111,644.73384 67.427734,677.22852 226.52229,636.07781 326.8109,696.02736 348.55273,675.24414 370.74665,654.02875 311.77963,633.80748 237.50977,633.39453 Z M 246.9082,702.125 C 182.56481,702.32148 76.551226,728.17743 22.560547,786.71484 170.05898,714.26707 280.3923,752.71633 297.48633,727.96875 309.11933,711.12729 285.51423,702.00711 246.9082,702.125 Z m 69.05078,57.91016 c -0.99155,-0.013 -2.01598,-0.004 -3.07031,0.0273 -43.11016,1.27052 -137.3856,39.26805 -176.46875,102.45117 101.66986,-79.41598 187.06597,-63.96449 197.19922,-86.38086 4.84872,-10.72616 -2.7869,-15.90222 -17.66016,-16.09765 z" />
      <path
         style="fill:#1a1a1a;fill-opacity:1;stroke:none;stroke-width:0.834085px;stroke-linecap:butt;stroke-linejoin:miter;stroke-opacity:1"
         d="m 526.52148,683.68321 c -11.37478,0.17301 -20.73468,3.90957 -26.14062,17.81055 -14.06731,-34.59798 -25.85253,-4.94235 -83.64258,-15.58789 -0.3802,61.59202 72.91587,28.05076 76.41797,60.07031 5.23204,47.8364 -76.25872,44.81294 -51.32617,61.5918 21.45805,14.44062 58.93164,-11.78516 58.93164,-11.78516 40.68115,30.41581 64.92566,10.43356 57.0293,4.5625 -11.50204,-8.55195 -51.53705,-22.965 -51.32618,-51.32617 0.25159,-33.83856 71.09587,-17.49088 76.79883,-63.875 -19.1881,5.64356 -40.1175,-1.71379 -56.74219,-1.46094 z"
         id="path4492" />
      <path
         id="path4482"
         style="fill:#1a1a1a;fill-opacity:1;stroke:none;stroke-width:0.834085px;stroke-linecap:butt;stroke-linejoin:miter;stroke-opacity:1"
         d="m 710.71875,445.11328 c -18.36134,0.20377 -43.19087,2.80724 -66.87109,13.51367 -23.68022,10.7064 -46.20919,30.04534 -57.87305,62.08399 -0.65583,1.80236 -0.7225,3.76695 -0.18945,5.60937 6.00456,20.76582 26.09618,37.72653 51.27734,46.1211 25.18116,8.39459 56.39191,7.65427 84.45312,-10.39063 28.59002,-18.38496 35.12548,-47.30373 33.88868,-69.79101 -1.23679,-22.48727 -9.47071,-40.25782 -9.47071,-40.25782 -1.25495,-2.73803 -3.78946,-4.67108 -6.76171,-5.1582 0,0 -11.76067,-1.91576 -28.45313,-1.73047 z m 0.0996,9.04688 c 15.9714,-0.17727 26.89062,1.61132 26.89062,1.61132 0,0 30.12774,65.73545 -21.08789,98.66993 -51.21563,32.93449 -112.59577,2.38803 -122.14453,-30.63477 6.69946,-17.23425 25.36187,-48.1034 67.72071,-62.42578 -33.10731,38.76195 10.26171,73.16797 10.26171,73.16797 0,0 15.97613,-11.87072 21.45313,-29.75586 l -12.4707,-7.48047 c 0,0 1.14714,-3.89973 1.05664,-8.60352 l 13.20507,2.50391 c -0.0579,-1.22016 -0.17958,-2.45677 -0.36328,-3.70898 l -13.16015,-2.28516 c -0.93713,-5.56658 -3.55078,-9.00781 -3.55078,-9.00781 l 9.92187,-6.11914 c -2.65272,-4.13237 -6.15478,-8.35783 -10.62695,-12.63672 11.93154,-2.3219 23.32858,-3.18873 32.89453,-3.29492 z" />
      <path
         id="path1548"
         style="fill:#1a1a1a;fill-opacity:1;stroke:none;stroke-width:0.834085px;stroke-linecap:butt;stroke-linejoin:miter;stroke-opacity:1"
         d="m 289.28125,445.11328 c -16.69247,-0.18529 -28.45313,1.73047 -28.45313,1.73047 -2.97226,0.48712 -5.50677,2.42017 -6.76171,5.1582 0,0 -8.2339,17.77055 -9.47071,40.25782 -1.23679,22.48728 5.29864,51.40605 33.88868,69.79101 28.06119,18.0449 59.27195,18.78522 84.45312,10.39063 25.18116,-8.39457 45.27277,-25.35528 51.27734,-46.1211 0.53305,-1.84242 0.46639,-3.80701 -0.18945,-5.60937 -11.66385,-32.03865 -34.19283,-51.37759 -57.87305,-62.08399 -23.68023,-10.70643 -48.50977,-13.3099 -66.87109,-13.51367 z m -0.0996,9.04688 c 9.56593,0.10623 20.963,0.97302 32.89453,3.29492 -4.47216,4.27889 -7.97423,8.50436 -10.62695,12.63672 l 9.92187,6.11914 c 0,0 -2.61365,3.44123 -3.55078,9.00781 l -13.16015,2.28516 c -0.1837,1.25221 -0.30533,2.48882 -0.36328,3.70898 l 13.20507,-2.50391 c -0.0906,4.70379 1.05664,8.60352 1.05664,8.60352 l -12.4707,7.48047 c 5.477,17.88514 21.45313,29.75586 21.45313,29.75586 0,0 43.36902,-34.40602 10.26171,-73.16797 42.35885,14.32238 61.02125,45.19153 67.72071,62.42578 -9.54877,33.0228 -70.92889,63.56926 -122.14453,30.63477 -51.21562,-32.93448 -21.08789,-98.66993 -21.08789,-98.66993 0,0 10.91921,-1.78859 26.89062,-1.61132 z" />
      <path
         style="fill:#1a1a1a;fill-opacity:1;stroke:none;stroke-width:1px;stroke-linecap:butt;stroke-linejoin:miter;stroke-opacity:1"
         d="m 769.17969,63.443359 c -0.8487,-0.0632 -1.71434,-0.06307 -2.59766,0.0039 -2.78027,0.21082 -5.73428,1.075486 -8.87109,2.660156 C 690.79235,99.913555 600.26758,247.8418 600.26758,247.8418 l 29.63476,1.65625 c 0,0 178.44068,-315.689197 151.82813,63.88672 14.44158,7.5633 26.33984,12.28125 26.33984,12.28125 0,0 14.57721,-258.241365 -38.89062,-262.222661 z"
         id="path4630" />
      <path
         style="fill:#1a1a1a;fill-opacity:1;stroke:none;stroke-width:1px;stroke-linecap:butt;stroke-linejoin:miter;stroke-opacity:1"
         d="m 230.82227,63.443359 c -53.46791,3.981296 -38.89258,262.222661 -38.89258,262.222661 0,0 11.89826,-4.71795 26.33984,-12.28125 -26.61256,-379.575917 151.82813,-63.88672 151.82813,-63.88672 l 29.63672,-1.65625 c 0,0 -90.52477,-147.928245 -157.44336,-181.734378 -3.13681,-1.58467 -6.09084,-2.449336 -8.8711,-2.660156 -0.88331,-0.06698 -1.74896,-0.0671 -2.59765,-0.0039 z"
         id="path4340" />
    </g>
  </g>
  <metadata
     id="metadata9">
    <rdf:RDF>
      <cc:Work
         rdf:about="">
        <dc:creator>
          <cc:Agent>
            <dc:title>freesvgfiles.org</dc:title>
          </cc:Agent>
        </dc:creator>
        <dc:rights>
          <cc:Agent>
            <dc:title>freesvgfiles.org</dc:title>
          </cc:Agent>
        </dc:rights>
        <dc:source>freesvgfiles.org</dc:source>
        <cc:license
           rdf:resource="https://freesvgfiles.org/" />
      </cc:Work>
    </rdf:RDF>
  </metadata>
</svg>
